<svg width="24" height="24" viewBox="0 0 24 24"  xmlns="http://www.w3.org/2000/svg">
<path d="M14.2541 8.22932L14.3352 11.2194L5.70614 19.8484L4.17057 18.3129L14.2541 8.22932ZM18.8075 4.93425C14.9217 4.92999 11.0358 4.92999 7.14999 4.92146C7.06895 4.92146 6.98577 4.88094 6.93672 4.86601C6.93672 5.64659 6.93885 6.34399 6.93672 7.08405C9.26353 7.08618 11.6031 7.08831 13.9683 7.09044L16.9158 7.08191L16.9499 8.6516C16.9499 8.6516 16.9755 8.66014 16.9883 8.6644C16.9925 11.4796 16.9925 14.2948 16.9968 17.0588C17.6857 17.0652 18.3831 17.0716 19.1167 17.0802C19.1103 17.0098 19.0933 16.9245 19.0912 16.8413C19.0869 12.964 19.0826 9.08668 19.0805 5.20724C19.0805 5.1262 19.0997 5.04729 19.1082 4.96625L19.0485 4.90653C18.9675 4.91506 18.8885 4.93425 18.8075 4.93425Z"/>
</svg>
