<svg width="24" height="24" viewBox="0 0 24 24" xmlns="http://www.w3.org/2000/svg">
<path d="M20.9761 21.9997C21.3731 21.6026 21.7702 21.2056 22.1639 20.8119C20.5657 19.2136 18.9541 17.602 17.3291 15.9837C20.4022 12.1866 19.6347 6.85123 16.1946 3.98836C12.9314 1.27231 8.26004 1.32904 4.97342 4.21859C1.69681 7.10148 1.31309 11.8863 3.62874 15.323C4.81993 17.0881 6.4549 18.2726 8.5203 18.8032C10.6458 19.3471 12.6244 19.1335 14.4596 18.2259L13.1649 16.9313C12.4042 17.2216 11.58 17.3851 10.7192 17.3851C6.94205 17.3851 3.87565 14.322 3.87565 10.5449C3.87565 6.78449 6.93871 3.71476 10.6991 3.70808C14.4763 3.70141 17.546 6.76114 17.5493 10.5382C17.5493 12.7571 16.4983 14.7291 14.8666 15.977L16.1246 17.1816C16.1246 17.1816 16.1379 17.1715 16.1446 17.1649C17.7662 18.7865 19.3778 20.3981 20.9761 21.9997Z" stroke="currentColor" stroke-width="0.5"/>
</svg>
