<?xml version="1.0" encoding="UTF-8"?>
<svg id="Layer_2" data-name="Layer 2" xmlns="http://www.w3.org/2000/svg" viewBox="0 0 562.2 182.16">
  <g id="Layer_1-2" data-name="Layer 1">
    <g>
      <g>
        <path d="m207.86,24.85h7.32v39.23h-7.32V24.85Z"/>
        <path d="m247.95,47.85v16.23h-7v-15.91c0-3.61-1.91-5.73-5.19-5.73-3.71,0-5.89,2.7-5.89,7.21v14.42h-7v-26.61h7v9.33h.11c0-6.2,3.24-9.86,8.64-9.86,5.88,0,9.33,4.03,9.33,10.92Z"/>
        <path d="m278.93,37.47l-6.95,26.61h-13.2l-6.99-26.61h7.47l6.1,26.14h.1l6-26.14h7.48Z"/>
        <path d="m307.83,51.57h-19.41c.26,4.88,2.6,7.74,6.37,7.74,3.29,0,5.56-1.8,6.25-4.72h6.79c-.96,6.31-5.84,10.02-13.04,10.02-8.27,0-13.15-5.14-13.15-13.84s4.88-13.84,13.15-13.84,13.04,5.09,13.04,13.84v.8Zm-19.35-2.38h12.51c-.43-4.45-2.71-7-6.2-7s-5.83,2.55-6.31,7Z"/>
        <path d="m311.56,55.44h6.52c0,2.97,2.06,4.72,5.56,4.72s5.36-1.27,5.36-3.49c0-2.81-3.13-3.34-6.63-3.93-4.61-.74-10.12-1.64-10.12-7.74,0-5.04,4.24-8.06,11.4-8.06s11.35,3.24,11.35,8.75h-6.52c0-2.81-1.75-4.4-4.83-4.4-2.92,0-4.67,1.17-4.67,3.13,0,2.38,2.92,2.86,6.31,3.44,4.72.8,10.45,1.75,10.45,8.01,0,5.46-4.51,8.75-12.09,8.75s-12.09-3.39-12.09-9.18Z"/>
        <path d="m349.26,42.29v12.83c0,2.5,1.59,3.93,4.24,3.93,1.27,0,2.6-.32,3.56-.85v5.19c-1.59.74-3.77,1.22-5.78,1.22-5.67,0-9.01-3.19-9.01-8.59v-13.73h-3.81v-4.82h4.24v-8.91h7v2.23c0,3.39-2.55,5.78-6.79,6.58v.11h14.63v4.82h-8.27Z"/>
        <path d="m373.55,25.74h7v6.63h-7v-6.63Zm0,11.72h7v26.61h-7v-26.61Z"/>
        <path d="m412.58,47.85v16.23h-7v-15.91c0-3.61-1.91-5.73-5.19-5.73-3.71,0-5.89,2.7-5.89,7.21v14.42h-7v-26.61h7v9.33h.11c0-6.2,3.24-9.86,8.64-9.86,5.88,0,9.33,4.03,9.33,10.92Z"/>
        <path d="m429.56,44.46c0-12.67,6.79-20.15,18.24-20.15s18.13,7.48,18.13,20.15-6.79,20.15-18.13,20.15-18.24-7.48-18.24-20.15Zm28.8,0c0-8.96-3.93-14.31-10.56-14.31s-10.66,5.36-10.66,14.31,3.93,14.32,10.66,14.32,10.56-5.36,10.56-14.32Z"/>
        <path d="m498.92,50.77c0,8.7-3.98,13.84-10.66,13.84-5.93,0-9.49-3.61-9.49-9.7h-.11v21.36h-7v-38.81h7v9.11h.11c0-6.04,3.56-9.65,9.49-9.65,6.68,0,10.66,5.14,10.66,13.84Zm-7.16,0c0-5.19-2.49-8.27-6.73-8.27s-6.74,3.34-6.74,8.27,2.49,8.27,6.74,8.27,6.73-3.07,6.73-8.27Z"/>
        <path d="m529.21,51.57h-19.41c.26,4.88,2.6,7.74,6.37,7.74,3.29,0,5.56-1.8,6.25-4.72h6.79c-.95,6.31-5.83,10.02-13.04,10.02-8.27,0-13.15-5.14-13.15-13.84s4.88-13.84,13.15-13.84,13.04,5.09,13.04,13.84v.8Zm-19.35-2.38h12.51c-.43-4.45-2.7-7-6.2-7s-5.83,2.55-6.31,7Z"/>
        <path d="m559.71,47.85v16.23h-7v-15.91c0-3.61-1.91-5.73-5.19-5.73-3.71,0-5.89,2.7-5.89,7.21v14.42h-7v-26.61h7v9.33h.11c0-6.2,3.24-9.86,8.64-9.86,5.88,0,9.33,4.03,9.33,10.92Z"/>
        <path d="m207.86,79.9h7.32v39.23h-7.32v-39.23Z"/>
        <path d="m247.95,102.91v16.23h-7v-15.91c0-3.61-1.91-5.73-5.19-5.73-3.71,0-5.89,2.7-5.89,7.21v14.42h-7v-26.61h7v9.33h.11c0-6.2,3.24-9.86,8.64-9.86,5.88,0,9.33,4.03,9.33,10.92Z"/>
        <path d="m262.7,88.27v4.25h8.38v4.82h-8.01v21.79h-7v-21.79h-4.03v-4.82h10.39v-.11c-4.25-.8-6.74-3.19-6.74-6.58,0-5.09,3.87-8.05,10.39-8.05,2.28,0,4.56.48,6.36,1.32l-.9,5.25c-1.06-.64-2.39-1.01-3.77-1.01-3.34,0-5.09,1.86-5.09,4.93Z"/>
        <path d="m294.41,92.83l-2.01,6.26c-1.06-.58-2.39-.95-3.71-.95-4.08,0-6.52,3.34-6.52,8.96v12.04h-7v-26.61h7v10.97h.11c0-7.26,3.02-11.5,8.06-11.5,1.54,0,3.02.32,4.08.85Z"/>
        <path d="m323.05,92.52v26.61h-7v-9.17h-.11c0,6.1-3.55,9.7-9.49,9.7-6.68,0-10.61-5.14-10.61-13.84s3.93-13.84,10.61-13.84c5.94,0,9.49,3.61,9.49,9.65h.11v-9.11h7Zm-6.63,13.3c0-4.93-2.49-8.32-6.74-8.32s-6.73,3.13-6.73,8.32,2.49,8.27,6.73,8.27,6.74-3.39,6.74-8.27Z"/>
        <path d="m328.26,110.49h6.52c0,2.97,2.06,4.72,5.56,4.72s5.36-1.27,5.36-3.49c0-2.81-3.13-3.34-6.63-3.93-4.61-.74-10.12-1.64-10.12-7.74,0-5.04,4.24-8.06,11.4-8.06s11.35,3.24,11.35,8.75h-6.52c0-2.81-1.75-4.4-4.83-4.4-2.92,0-4.67,1.17-4.67,3.13,0,2.38,2.92,2.86,6.31,3.44,4.72.8,10.45,1.75,10.45,8.01,0,5.46-4.51,8.75-12.09,8.75s-12.09-3.39-12.09-9.18Z"/>
        <path d="m365.97,97.34v12.83c0,2.5,1.59,3.93,4.24,3.93,1.27,0,2.6-.32,3.56-.85v5.19c-1.59.74-3.77,1.22-5.78,1.22-5.67,0-9.01-3.19-9.01-8.59v-13.73h-3.81v-4.82h4.24v-8.91h7v2.23c0,3.39-2.55,5.78-6.79,6.58v.11h14.63v4.82h-8.27Z"/>
        <path d="m398,92.83l-2.01,6.26c-1.06-.58-2.39-.95-3.71-.95-4.08,0-6.52,3.34-6.52,8.96v12.04h-7v-26.61h7v10.97h.11c0-7.26,3.02-11.5,8.06-11.5,1.54,0,3.02.32,4.08.85Z"/>
        <path d="m425.84,92.52v26.61h-7v-9.38h-.11c0,6.2-3.07,9.92-8.32,9.92-5.73,0-9.12-4.08-9.12-10.93v-16.22h7v15.9c0,3.61,1.86,5.68,4.99,5.68,3.49,0,5.56-2.65,5.56-7.21v-14.36h7Z"/>
        <path d="m431.31,105.82c0-8.69,5.14-13.84,13.74-13.84,7.26,0,11.98,3.82,13.04,10.39h-6.89c-.9-3.07-3.02-4.88-6.15-4.88-4.14,0-6.58,3.13-6.58,8.32s2.44,8.27,6.58,8.27c3.29,0,5.46-1.91,6.25-5.19h6.89c-1.01,6.84-5.73,10.76-13.15,10.76-8.59,0-13.74-5.14-13.74-13.84Z"/>
        <path d="m471.56,97.34v12.83c0,2.5,1.59,3.93,4.24,3.93,1.27,0,2.6-.32,3.56-.85v5.19c-1.59.74-3.77,1.22-5.78,1.22-5.67,0-9.01-3.19-9.01-8.59v-13.73h-3.81v-4.82h4.24v-8.91h7v2.23c0,3.39-2.55,5.78-6.79,6.58v.11h14.63v4.82h-8.27Z"/>
        <path d="m508.63,92.52v26.61h-7v-9.38h-.11c0,6.2-3.07,9.92-8.32,9.92-5.73,0-9.12-4.08-9.12-10.93v-16.22h7v15.9c0,3.61,1.86,5.68,4.99,5.68,3.5,0,5.56-2.65,5.56-7.21v-14.36h7Z"/>
        <path d="m534.78,92.83l-2.01,6.26c-1.06-.58-2.39-.95-3.71-.95-4.08,0-6.52,3.34-6.52,8.96v12.04h-7v-26.61h7v10.97h.11c0-7.26,3.02-11.5,8.06-11.5,1.54,0,3.02.32,4.08.85Z"/>
        <path d="m562.2,106.62h-19.41c.26,4.88,2.6,7.74,6.37,7.74,3.29,0,5.56-1.8,6.25-4.72h6.79c-.95,6.31-5.83,10.02-13.04,10.02-8.27,0-13.15-5.14-13.15-13.84s4.88-13.84,13.15-13.84,13.04,5.09,13.04,13.84v.8Zm-19.35-2.38h12.51c-.43-4.45-2.71-7-6.2-7s-5.83,2.55-6.31,7Z"/>
      </g>
      <g>
        <path d="m107.61,182.16c-36.16,0-65.58-29.42-65.58-65.58,0-19.64,8.7-38.08,23.86-50.6h0c11.7-9.66,26.52-14.98,41.72-14.98,36.16,0,65.58,29.42,65.58,65.58s-29.42,65.58-65.58,65.58Zm-33.39-106.09h0c-12.14,10.02-19.11,24.79-19.11,40.51,0,28.95,23.55,52.5,52.5,52.5s52.5-23.55,52.5-52.5-23.55-52.5-52.5-52.5c-12.17,0-24.03,4.26-33.39,11.99Z"/>
        <polygon points="114.14 124.31 65.83 124.31 65.83 111.24 101.07 111.24 101.07 13.08 13.08 13.08 13.08 111.24 44.74 111.24 44.74 124.31 0 124.31 0 0 114.14 0 114.14 124.31"/>
      </g>
    </g>
  </g>
</svg>