<svg width="16" height="16" viewBox="0 0 16 16"  xmlns="http://www.w3.org/2000/svg">
<path fill-rule="evenodd" clip-rule="evenodd" d="M11.0641 4.85506L8.00005 2.30171L4.93604 4.85506L4.29585 4.08684L8.00005 1L11.7043 4.08684L11.0641 4.85506Z"/>
<path fill-rule="evenodd" clip-rule="evenodd" d="M8.50005 2.15085V11H7.50005V2.15085H8.50005Z"/>
<path fill-rule="evenodd" clip-rule="evenodd" d="M2.5 7H5.5V8H3.5L3.50005 14H12.5001L12.5 8H10.5V7H13.5L13.5001 15H2.50005L2.5 7Z"/>
<path fill-rule="evenodd" clip-rule="evenodd" d="M11.0641 4.85506L8.00005 2.30171L4.93604 4.85506L4.29585 4.08684L8.00005 1L11.7043 4.08684L11.0641 4.85506Z" stroke="currentColor" stroke-width="0.5" stroke-miterlimit="3.99933"/>
<path fill-rule="evenodd" clip-rule="evenodd" d="M8.50005 2.15085V11H7.50005V2.15085H8.50005Z" stroke="currentColor" stroke-width="0.5" stroke-miterlimit="3.99933"/>
<path fill-rule="evenodd" clip-rule="evenodd" d="M2.5 7H5.5V8H3.5L3.50005 14H12.5001L12.5 8H10.5V7H13.5L13.5001 15H2.50005L2.5 7Z" stroke="currentColor" stroke-width="0.5" stroke-miterlimit="3.99933"/>
</svg>
