<svg width="16" height="16" viewBox="0 0 16 16"  xmlns="http://www.w3.org/2000/svg">
<path d="M5.7019,9.23755,9.23755,5.7019a.24991.24991,0,0,1,.35351,0l.707.707a.24991.24991,0,0,1,0,.35351L6.76245,10.2981a.24991.24991,0,0,1-.35351,0l-.707-.707A.24991.24991,0,0,1,5.7019,9.23755ZM9.23755,10.2981a.249.249,0,0,0-.35352,0L7.46948,11.71216a2.30438,2.30438,0,0,1-3.18164,0,2.25273,2.25273,0,0,1,0-3.18164L5.7019,7.116a.24991.24991,0,0,0,0-.35352l-.707-.707a.2499.2499,0,0,0-.35351,0L3.22729,7.46948a3.74995,3.74995,0,1,0,5.30323,5.30323l1.41406-1.41407a.2499.2499,0,0,0,0-.35351Zm3.53516-7.07081a3.74924,3.74924,0,0,0-5.30323,0L6.05542,4.64136a.2499.2499,0,0,0,0,.35351l.707.707a.24991.24991,0,0,0,.35352,0L8.53052,4.28784a2.24976,2.24976,0,1,1,3.18164,3.18164L10.2981,8.884a.24991.24991,0,0,0,0,.35352l.707.707a.24991.24991,0,0,0,.35351,0l1.41407-1.41406a3.74924,3.74924,0,0,0,0-5.30323Z" />
</svg>
