<svg width="16" height="16" viewBox="0 0 16 16"  xmlns="http://www.w3.org/2000/svg">
<path fill-rule="evenodd" clip-rule="evenodd" d="M11.5355 2.2743C10.5979 1.37959 9.32608 0.876953 8 0.876953C6.67392 0.876953 5.40215 1.37959 4.46447 2.2743C3.52678 3.16901 3 4.38249 3 5.64779C3 9.60679 8 15.1204 8 15.1204C8 15.1204 13 9.60679 13 5.64779C13 4.38249 12.4732 3.16901 11.5355 2.2743ZM8.00124 8.22746C9.25644 8.22746 10.274 7.19892 10.274 5.93014C10.274 4.66136 9.25644 3.63281 8.00124 3.63281C6.74605 3.63281 5.72852 4.66136 5.72852 5.93014C5.72852 7.19892 6.74605 8.22746 8.00124 8.22746Z"/>
</svg>
